<svg width="23" height="18" viewBox="0 0 23 18" fill="none" xmlns="http://www.w3.org/2000/svg">
<path d="M9.85667 8.75159C9.85667 8.75159 11.4433 8.63825 11.4433 6.65492C11.5 4.67159 10.14 3.70825 8.49667 3.70825H3V14.7016H8.49667C8.49667 14.7016 11.84 14.8149 11.84 11.4716C11.84 11.4716 12.01 8.75159 9.85667 8.75159ZM5.43667 5.63492H8.49667C8.49667 5.63492 9.23333 5.63492 9.23333 6.76825C9.23333 7.90159 8.78 8.07159 8.27 8.07159H5.43667V5.63492ZM8.32667 12.7183H5.43667V9.77158H8.49667C8.49667 9.77158 9.63 9.77158 9.63 11.3016C9.57333 12.6049 8.78 12.7183 8.32667 12.7183ZM16.3167 6.48492C12.2367 6.48492 12.2367 10.7349 12.2367 10.7349C12.2367 10.7349 11.9533 14.9283 16.3167 14.9283C16.3167 14.9283 19.9433 15.1549 19.9433 11.9816H18.0733C18.0733 11.9816 18.13 13.1716 16.3733 13.1716C16.3733 13.1716 14.5033 13.2849 14.5033 11.2449H19.9433C19.9433 11.2449 20.5667 6.48492 16.3167 6.48492ZM17.96 9.82825H14.5033C14.5033 9.82825 14.73 8.12825 16.3733 8.12825C18.0167 8.12825 17.96 9.82825 17.96 9.82825ZM18.4133 4.33159H14.05V5.69159H18.4133V4.33159Z" fill="white"/>
</svg>
