<svg width="17" height="18" viewBox="0 0 17 18" fill="none" xmlns="http://www.w3.org/2000/svg">
<g clip-path="url(#clip0_1_42)">
<path d="M14.1667 2.0083H2.26667C1.30333 2.0083 0.566666 2.74497 0.566666 3.7083V15.6083C0.566666 16.5716 1.30333 17.3083 2.26667 17.3083H14.1667C15.13 17.3083 15.8667 16.5716 15.8667 15.6083V3.7083C15.8667 2.74497 15.13 2.0083 14.1667 2.0083ZM8.21667 14.3616C10.8233 14.3616 12.92 12.265 12.92 9.6583C12.92 9.37497 12.8633 9.09163 12.8067 8.8083H14.1667V14.9283C14.1667 15.2683 13.8833 15.495 13.6 15.495H2.83333C2.49333 15.495 2.26667 15.2116 2.26667 14.9283V8.8083H3.57C3.51333 9.09163 3.45667 9.37497 3.45667 9.6583C3.51333 12.265 5.61 14.3616 8.21667 14.3616ZM5.27 9.6583C5.27 8.01497 6.57333 6.71163 8.21667 6.71163C9.86 6.71163 11.1633 8.01497 11.1633 9.6583C11.1633 11.3016 9.86 12.605 8.21667 12.605C6.57333 12.605 5.27 11.245 5.27 9.6583ZM13.6 6.2583H12.24C11.9 6.2583 11.6733 5.97497 11.6733 5.69163V4.27497C11.6733 3.93497 11.9567 3.7083 12.24 3.7083H13.6C13.94 3.7083 14.1667 3.99163 14.1667 4.27497V5.63497C14.1667 5.97497 13.8833 6.2583 13.6 6.2583Z" fill="white"/>
</g>
<defs>
<clipPath id="clip0_1_42">
<rect width="17" height="17" fill="white" transform="translate(0 0.875)"/>
</clipPath>
</defs>
</svg>
