<svg width="17" height="18" viewBox="0 0 17 18" fill="none" xmlns="http://www.w3.org/2000/svg">
<path d="M14.8467 6.31494C14.8467 6.42827 14.8467 6.59827 14.8467 6.7116C14.8467 10.9616 11.6167 15.8349 5.72334 15.8349C3.91 15.8349 2.21 15.3249 0.793335 14.4183C1.02 14.4183 1.30334 14.4749 1.58667 14.4749C3.11667 14.4749 4.47667 13.9649 5.55334 13.1149C4.13667 13.1149 2.94667 12.1516 2.55 10.9049C2.72 10.9616 2.94667 10.9616 3.17334 10.9616C3.45667 10.9616 3.74 10.9049 4.02334 10.8483C2.55 10.5083 1.41667 9.20494 1.41667 7.67493C1.41667 7.67493 1.41667 7.67493 1.41667 7.61827C1.87 7.84493 2.32334 8.01494 2.89 8.01494C2.04 7.44827 1.47333 6.48494 1.47333 5.3516C1.47333 4.78493 1.64334 4.21827 1.92667 3.76493C3.51334 5.6916 5.89334 6.99493 8.55667 7.10827C8.5 6.8816 8.5 6.65493 8.5 6.3716C8.5 4.61493 9.91667 3.1416 11.73 3.1416C12.6367 3.1416 13.4867 3.53827 14.0533 4.1616C14.79 3.9916 15.47 3.76493 16.0933 3.36827C15.8667 4.10493 15.3567 4.72827 14.6767 5.12493C15.2433 5.06827 15.8667 4.89827 16.4333 4.6716C15.98 5.29493 15.47 5.8616 14.8467 6.31494Z" fill="white"/>
</svg>
