<svg width="17" height="18" viewBox="0 0 17 18" fill="none" xmlns="http://www.w3.org/2000/svg">
<path d="M12.41 7.33495C12.41 7.33495 11.1633 11.3016 11.05 11.585C10.9933 11.245 10.0867 4.16162 10.0867 4.16162C7.93333 4.16162 6.79999 5.69162 6.17666 7.27829C6.17666 7.27829 4.64666 11.245 4.53333 11.585C4.53333 11.3016 4.30666 7.33495 4.30666 7.33495C4.19333 5.35162 2.38 4.16162 0.906662 4.16162L2.66333 14.8716C4.93 14.8716 6.11999 13.3416 6.74333 11.755C6.74333 11.755 8.10333 8.24162 8.15999 8.12829C8.15999 8.29829 9.12333 14.9283 9.12333 14.9283C11.39 14.9283 12.58 13.5116 13.26 11.925L16.4333 4.16162C14.2233 4.16162 13.0333 5.69162 12.41 7.33495Z" fill="white"/>
</svg>
