<svg width="17" height="18" viewBox="0 0 17 18" fill="none" xmlns="http://www.w3.org/2000/svg">
<path d="M15.4133 6.20165C14.79 4.84165 13.8833 3.65165 12.6367 2.80165C11.39 1.95165 9.91667 1.44165 8.33 1.44165C7.19667 1.44165 6.17667 1.72498 5.38333 2.00832C4.02333 2.57498 2.83333 3.53832 1.98333 4.84165C1.13333 6.14498 0.566666 7.56165 0.566666 9.20498C0.566666 10.2817 0.793332 11.3583 1.19 12.1517C1.81333 13.5117 2.72 14.7016 3.96667 15.5517C5.21333 16.4017 6.68667 16.9116 8.33 16.9116C9.40667 16.9116 10.4833 16.6283 11.2767 16.345C12.6367 15.7217 13.8267 14.815 14.6767 13.5117C15.5267 12.2083 16.0367 10.7916 16.0367 9.20498C16.0367 8.07165 15.8667 7.05165 15.4133 6.20165ZM12.0133 13.8517C11.8433 13.0583 11.56 11.8117 10.9933 10.1683C11.22 10.1683 11.6167 10.055 11.8433 10.055C12.5233 10.055 13.09 10.1683 13.6 10.225C13.77 10.225 13.94 10.3383 14.11 10.3383C13.94 11.075 13.6567 11.6983 13.26 12.3783C12.9767 12.8883 12.58 13.455 12.0133 13.8517ZM14.28 8.69498C14.11 8.69498 13.94 8.58165 13.6567 8.58165C13.1467 8.52498 12.4667 8.41165 11.73 8.41165C11.2767 8.41165 10.88 8.41165 10.4833 8.52498V8.41165C10.37 8.24165 10.3133 7.95832 10.2 7.84498C11.3333 7.33498 12.1833 6.71165 12.6933 6.31498C12.92 6.03165 13.1467 5.86165 13.3167 5.74832C13.8267 6.54165 14.1667 7.56165 14.28 8.69498ZM11.39 5.12498C10.9367 5.40832 10.2567 5.97498 9.35 6.25832C8.84 5.35165 8.33 4.55832 7.93333 3.99165C7.70667 3.70832 7.53667 3.48165 7.36667 3.25498C7.59333 3.14165 7.99 3.14165 8.33 3.14165C9.74667 3.14165 11.05 3.65165 12.07 4.38832C11.9 4.67165 11.73 4.84165 11.39 5.12498ZM5.49667 3.93498C5.83667 4.44498 6.63 5.57832 7.48 6.88165C5.32667 7.39165 3.4 7.50498 2.55 7.56165C2.83333 6.76832 3.17333 6.14498 3.68333 5.52165C4.13667 4.84165 4.81667 4.27498 5.49667 3.93498ZM4.64667 9.20498C5.78 9.09165 7.02667 8.86498 8.33 8.52498C8.38667 8.69498 8.5 8.86498 8.55667 9.03498C7.70667 9.31832 6.97 9.71498 6.34667 10.1683C5.32667 10.8483 4.64667 11.585 4.13667 12.3217C3.96667 12.4917 3.79667 12.775 3.62667 12.945C2.89 11.9816 2.43667 10.735 2.38 9.43165C2.77667 9.37498 3.62667 9.26165 4.64667 9.20498ZM5.95 12.775C6.63 12.095 7.76333 11.245 9.29333 10.6217C9.97333 12.4917 10.3133 14.0217 10.4833 14.7583C9.80333 15.0417 9.12333 15.0983 8.33 15.0983C7.08333 15.0983 5.83667 14.645 4.81667 13.965C4.98667 13.795 5.32667 13.285 5.95 12.775Z" fill="white"/>
</svg>
